<?xml version="1.0" encoding="utf-8"?>
<!-- Generator: Adobe Illustrator 19.0.0, SVG Export Plug-In . SVG Version: 6.00 Build 0)  -->
<svg version="1.1" id="Layer_1" xmlns="http://www.w3.org/2000/svg" xmlns:xlink="http://www.w3.org/1999/xlink" x="0px" y="0px"
	 viewBox="1019 750.8 285.2 100" style="enable-background:new 1019 750.8 285.2 100;" xml:space="preserve">
<style type="text/css">
	.st0{fill:#757575;}
	.st1{font-family:'OpenSans-Extrabold';}
	.st2{font-size:50.1799px;}
	.st3{letter-spacing:-2;}
	.st4{font-family:'OpenSans-Semibold';}
</style>
<g>
	<path class="st0" d="M1071.7,814l-39.5-63.2h-10.9c-2.2,0-3,1.5-1.9,3.4l26.5,43.3l0.1,0.2l18,28.7L1071.7,814z"/>
	<path class="st0" d="M1077.8,804.2c1.1-1.8,1.1-4.9,0-6.7l-26.8-43.3c-1.1-1.8-3.9-3.4-6-3.4h-11l38.6,61.8L1077.8,804.2z"/>
	<path class="st0" d="M1055.4,815.4l-22.1,35.4h11.8c2.2,0,4.9-1.5,6-3.4l10.7-17.3c0-0.1,0.1-0.2,0.3-0.5l1.1-1.8L1055.4,815.4z"/>
	<path class="st0" d="M1046,804.2l-26.5,43.3c-1.1,1.9-0.3,3.4,1.9,3.4h10.1l23-36.8l-7.7-12.4
		C1046.7,802.6,1046.4,803.5,1046,804.2z"/>
</g>
<text transform="matrix(1 0 0 1 1094.1873 820.1523)"><tspan x="0" y="0" class="st0 st1 st2 st3">GDG  </tspan><tspan x="123.4" y="0" class="st0 st4 st2 st3">Lviv</tspan></text>
</svg>
