<?xml version="1.0" encoding="utf-8"?>
<!-- Generator: Adobe Illustrator 19.0.0, SVG Export Plug-In . SVG Version: 6.00 Build 0)  -->
<svg version="1.1"
	 id="dark" sodipodi:docname="–ù–æ–≤–∏–π –¥–æ–∫—É–º–µ–Ω—Ç 1" inkscape:version="0.48.2 r9819" xmlns:rdf="http://www.w3.org/1999/02/22-rdf-syntax-ns#" xmlns:inkscape="http://www.inkscape.org/namespaces/inkscape" xmlns:cc="http://creativecommons.org/ns#" xmlns:dc="http://purl.org/dc/elements/1.1/" xmlns:svg="http://www.w3.org/2000/svg" xmlns:sodipodi="http://sodipodi.sourceforge.net/DTD/sodipodi-0.dtd"
	 xmlns="http://www.w3.org/2000/svg" xmlns:xlink="http://www.w3.org/1999/xlink" x="0px" y="0px" viewBox="95.2 1678.4 613.9 200"
	 style="enable-background:new 95.2 1678.4 613.9 200;" xml:space="preserve">
<style type="text/css">
	.st0{fill:#F6C25B;}
	.st1{fill:#0A985C;}
	.st2{fill:#5586C5;}
	.st3{fill:#D9423E;}
	.st4{fill:#168B58;}
	.st5{fill:#D7AB56;}
	.st6{fill:#E6E6E5;}
	.st7{font-family:'OpenSans-Extrabold';}
	.st8{font-size:75px;}
	.st9{letter-spacing:-4;}
	.st10{font-family:'OpenSans-Semibold';}
	.st11{font-size:66px;}
</style>
<g>
	<g>
		<path class="st0" d="M122.1,1878.4h22.6c5.4,0,12-3.8,14.8-8.4l19.1-31.7c2.3-4.7,2.2-11.4-0.4-15.7l-11.3-18.6L122.1,1878.4z"/>
		<path class="st1" d="M146.4,1786.8L96.1,1871c-1.9,4.1,0.1,7.5,5.1,7.5h20.9l44.8-74.4l-20.5-33.9
			C149.2,1774.6,149.2,1782.2,146.4,1786.8"/>
		<path class="st2" d="M101.1,1678.4c-5.4,0-7.5,3.8-4.7,8.4l81.8,135.8c2.6,4.3,2.6,11.1,0.4,15.7l19.9-33.1l-76.3-126.8
			L101.1,1678.4L101.1,1678.4z"/>
		<path class="st3" d="M122.1,1678.4l76.3,126.8l11.1-18.4c2.8-4.6,2.8-12.1,0-16.7l-50-83.3c-2.8-4.6-9.4-8.4-14.8-8.4H122.1
			L122.1,1678.4z"/>
	</g>
</g>
<path class="st4" d="M146.4,1786.8l-12,20.1l21.5,15.3l11-18.2l-20.5-33.9C149.2,1774.6,149.2,1782.2,146.4,1786.8z"/>
<path class="st5" d="M166.9,1804l-11,18.2l22.6,16.1c2.3-4.7,2.2-11.4-0.4-15.7L166.9,1804z"/>
<text transform="matrix(1 0 0 1 251.5026 1767.5674)" class="st6 st7 st8 st9">GDG  DevFest</text>
<text transform="matrix(1 0 0 1 258.25 1838.1528)" class="st6 st10 st11">2015 Season</text>
</svg>
