<?xml version="1.0" encoding="utf-8"?>
<!-- Generator: Adobe Illustrator 19.0.0, SVG Export Plug-In . SVG Version: 6.00 Build 0)  -->
<svg version="1.1" id="Layer_1" xmlns="http://www.w3.org/2000/svg" xmlns:xlink="http://www.w3.org/1999/xlink" x="0px" y="0px"
	 viewBox="410.4 3024.1 615.2 200" style="enable-background:new 410.4 3024.1 615.2 200;" xml:space="preserve">
<style type="text/css">
	.st0{fill:#FFFFFF;}
	.st1{font-family:'OpenSans-Extrabold';}
	.st2{font-size:75px;}
	.st3{letter-spacing:-4;}
	.st4{font-family:'OpenSans-Semibold';}
	.st5{font-size:66px;}
</style>
<g>
	<path class="st0" d="M515.9,3150.5l-79-126.4h-21.8c-4.4,0-6,3-3.8,6.7l53,86.5l0.3,0.4l35.9,57.5L515.9,3150.5z"/>
	<path class="st0" d="M528.1,3130.8c2.3-3.7,2.3-9.7,0-13.4l-53.6-86.6c-2.3-3.7-7.7-6.7-12-6.7h-22l77.2,123.5L528.1,3130.8z"/>
	<path class="st0" d="M483.2,3153.3l-44.2,70.8h23.5c4.3,0,9.8-3,12-6.7l21.4-34.6c0.1-0.1,0.2-0.4,0.6-1l2.2-3.6L483.2,3153.3z"/>
	<path class="st0" d="M464.4,3130.8l-53,86.5c-2.3,3.7-0.6,6.7,3.8,6.7h20.3l46-73.6l-15.4-24.8
		C465.8,3127.5,465.2,3129.3,464.4,3130.8z"/>
</g>
<text transform="matrix(1 0 0 1 567.9904 3112.7075)" class="st0 st1 st2 st3">GDG  DevFest</text>
<text transform="matrix(1 0 0 1 574.7377 3183.293)" class="st0 st4 st5">2015 Season</text>
</svg>
